<svg width="63" height="4" viewBox="0 0 63 4" fill="none" xmlns="http://www.w3.org/2000/svg">
<path d="M2.13471 3C2.10905 2.916 2.07988 2.82967 2.04721 2.741C2.01688 2.65233 1.98655 2.56367 1.95621 2.475H1.01121C0.98088 2.56367 0.94938 2.65233 0.916713 2.741C0.88638 2.82967 0.85838 2.916 0.832713 3H0.265713C0.356713 2.73867 0.443046 2.49717 0.524713 2.2755C0.60638 2.05383 0.685713 1.845 0.762713 1.649C0.842046 1.453 0.919046 1.2675 0.993713 1.0925C1.07071 0.915167 1.15005 0.7425 1.23171 0.5745H1.75321C1.83255 0.7425 1.91071 0.915167 1.98771 1.0925C2.06471 1.2675 2.14171 1.453 2.21871 1.649C2.29805 1.845 2.37855 2.05383 2.46021 2.2755C2.54188 2.49717 2.62821 2.73867 2.71921 3H2.13471ZM1.48021 1.124C1.46855 1.159 1.45105 1.20683 1.42771 1.2675C1.40438 1.32817 1.37755 1.39817 1.34721 1.4775C1.31688 1.55683 1.28305 1.64433 1.24571 1.74C1.21071 1.83567 1.17455 1.936 1.13721 2.041H1.82671C1.78938 1.936 1.75321 1.83567 1.71821 1.74C1.68321 1.64433 1.64938 1.55683 1.61671 1.4775C1.58638 1.39817 1.55955 1.32817 1.53621 1.2675C1.51288 1.20683 1.49421 1.159 1.48021 1.124ZM4.94849 1.621C4.90183 1.60933 4.84699 1.59767 4.78399 1.586C4.72099 1.572 4.65333 1.565 4.58099 1.565C4.54833 1.565 4.50866 1.5685 4.46199 1.5755C4.41766 1.58017 4.38383 1.586 4.36049 1.593V3H3.83899V1.257C3.93233 1.22433 4.04199 1.194 4.16799 1.166C4.29633 1.13567 4.43866 1.1205 4.59499 1.1205C4.62299 1.1205 4.65683 1.12283 4.69649 1.1275C4.73616 1.12983 4.77583 1.1345 4.81549 1.1415C4.85516 1.14617 4.89483 1.15317 4.93449 1.1625C4.97416 1.1695 5.00799 1.17883 5.03599 1.1905L4.94849 1.621ZM5.19388 2.0935C5.19388 1.93017 5.21838 1.78783 5.26738 1.6665C5.31871 1.54283 5.38521 1.44017 5.46688 1.3585C5.54854 1.27683 5.64188 1.215 5.74688 1.173C5.85421 1.131 5.96388 1.11 6.07588 1.11C6.33721 1.11 6.54371 1.1905 6.69538 1.3515C6.84704 1.51017 6.92288 1.74467 6.92288 2.055C6.92288 2.08533 6.92171 2.11917 6.91938 2.1565C6.91704 2.1915 6.91471 2.223 6.91238 2.251H5.72938C5.74104 2.35833 5.79121 2.4435 5.87988 2.5065C5.96854 2.5695 6.08754 2.601 6.23688 2.601C6.33254 2.601 6.42588 2.59283 6.51688 2.5765C6.61021 2.55783 6.68604 2.53567 6.74438 2.51L6.81438 2.9335C6.78638 2.9475 6.74904 2.9615 6.70238 2.9755C6.65571 2.9895 6.60321 3.00117 6.54488 3.0105C6.48888 3.02217 6.42821 3.0315 6.36288 3.0385C6.29754 3.0455 6.23221 3.049 6.16688 3.049C6.00121 3.049 5.85654 3.0245 5.73288 2.9755C5.61154 2.9265 5.51004 2.86 5.42838 2.776C5.34904 2.68967 5.28954 2.58817 5.24988 2.4715C5.21254 2.35483 5.19388 2.22883 5.19388 2.0935ZM6.41888 1.894C6.41654 1.84967 6.40838 1.8065 6.39438 1.7645C6.38271 1.7225 6.36288 1.68517 6.33488 1.6525C6.30921 1.61983 6.27538 1.593 6.23338 1.572C6.19371 1.551 6.14354 1.5405 6.08288 1.5405C6.02454 1.5405 5.97438 1.551 5.93238 1.572C5.89038 1.59067 5.85538 1.61633 5.82738 1.649C5.79938 1.68167 5.77721 1.72017 5.76088 1.7645C5.74688 1.8065 5.73638 1.84967 5.72938 1.894H6.41888ZM8.02882 2.636C8.08016 2.636 8.12916 2.63483 8.17582 2.6325C8.22249 2.63017 8.25982 2.62667 8.28782 2.622V2.2265C8.26682 2.22183 8.23532 2.21717 8.19332 2.2125C8.15132 2.20783 8.11282 2.2055 8.07782 2.2055C8.02882 2.2055 7.98216 2.209 7.93782 2.216C7.89582 2.22067 7.85849 2.23117 7.82582 2.2475C7.79316 2.26383 7.76749 2.286 7.74882 2.314C7.73016 2.342 7.72082 2.377 7.72082 2.419C7.72082 2.50067 7.74766 2.55783 7.80132 2.5905C7.85732 2.62083 7.93316 2.636 8.02882 2.636ZM7.98682 1.11C8.14082 1.11 8.26916 1.1275 8.37182 1.1625C8.47449 1.1975 8.55616 1.24767 8.61682 1.313C8.67982 1.37833 8.72416 1.45767 8.74982 1.551C8.77549 1.64433 8.78832 1.74817 8.78832 1.8625V2.9475C8.71366 2.96383 8.60982 2.9825 8.47682 3.0035C8.34382 3.02683 8.18282 3.0385 7.99382 3.0385C7.87482 3.0385 7.76632 3.028 7.66832 3.007C7.57266 2.986 7.48982 2.95217 7.41982 2.9055C7.34982 2.8565 7.29616 2.7935 7.25882 2.7165C7.22149 2.6395 7.20282 2.545 7.20282 2.433C7.20282 2.32567 7.22382 2.23467 7.26582 2.16C7.31016 2.08533 7.36849 2.02583 7.44082 1.9815C7.51316 1.93717 7.59599 1.90567 7.68932 1.887C7.78266 1.866 7.87949 1.8555 7.97982 1.8555C8.04749 1.8555 8.10699 1.859 8.15832 1.866C8.21199 1.87067 8.25516 1.87767 8.28782 1.887V1.838C8.28782 1.74933 8.26099 1.67817 8.20732 1.6245C8.15366 1.57083 8.06032 1.544 7.92732 1.544C7.83866 1.544 7.75116 1.551 7.66482 1.565C7.57849 1.57667 7.50382 1.59417 7.44082 1.6175L7.37432 1.1975C7.40466 1.18817 7.44199 1.17883 7.48632 1.1695C7.53299 1.15783 7.58316 1.1485 7.63682 1.1415C7.69049 1.13217 7.74649 1.12517 7.80482 1.1205C7.86549 1.1135 7.92616 1.11 7.98682 1.11ZM9.99489 3.035C9.84323 3.03267 9.71956 3.01633 9.62389 2.986C9.53056 2.95567 9.45589 2.91367 9.39989 2.86C9.34623 2.804 9.30889 2.7375 9.28789 2.6605C9.26923 2.58117 9.25989 2.4925 9.25989 2.3945V0.368L9.78139 0.284V2.2895C9.78139 2.33617 9.78489 2.37817 9.79189 2.4155C9.79889 2.45283 9.81173 2.48433 9.83039 2.51C9.85139 2.53567 9.88056 2.55667 9.91789 2.573C9.95523 2.58933 10.0054 2.59983 10.0684 2.6045L9.99489 3.035ZM11.1023 3.035C10.9506 3.03267 10.827 3.01633 10.7313 2.986C10.638 2.95567 10.5633 2.91367 10.5073 2.86C10.4536 2.804 10.4163 2.7375 10.3953 2.6605C10.3766 2.58117 10.3673 2.4925 10.3673 2.3945V0.368L10.8888 0.284V2.2895C10.8888 2.33617 10.8923 2.37817 10.8993 2.4155C10.9063 2.45283 10.9191 2.48433 10.9378 2.51C10.9588 2.53567 10.988 2.55667 11.0253 2.573C11.0626 2.58933 11.1128 2.59983 11.1758 2.6045L11.1023 3.035ZM13.0716 1.159C12.9666 1.51367 12.857 1.84617 12.7426 2.1565C12.6283 2.46683 12.5035 2.76783 12.3681 3.0595C12.3191 3.1645 12.2701 3.25317 12.2211 3.3255C12.1721 3.40017 12.1185 3.46083 12.0601 3.5075C12.0018 3.5565 11.9353 3.5915 11.8606 3.6125C11.7883 3.63583 11.7031 3.6475 11.6051 3.6475C11.5235 3.6475 11.4476 3.63933 11.3776 3.623C11.31 3.609 11.254 3.59267 11.2096 3.574L11.3006 3.1575C11.3543 3.17617 11.4021 3.189 11.4441 3.196C11.4861 3.203 11.5305 3.2065 11.5771 3.2065C11.6705 3.2065 11.7416 3.18083 11.7906 3.1295C11.842 3.0805 11.8851 3.01167 11.9201 2.923C11.8011 2.68967 11.6821 2.42833 11.5631 2.139C11.4441 1.84733 11.3321 1.52067 11.2271 1.159H11.7801C11.8035 1.25 11.8303 1.34917 11.8606 1.4565C11.8933 1.5615 11.9271 1.66883 11.9621 1.7785C11.9971 1.88583 12.0321 1.99083 12.0671 2.0935C12.1045 2.19617 12.1395 2.2895 12.1721 2.3735C12.2025 2.2895 12.234 2.19617 12.2666 2.0935C12.2993 1.99083 12.3308 1.88583 12.3611 1.7785C12.3938 1.66883 12.4241 1.5615 12.4521 1.4565C12.4825 1.34917 12.5093 1.25 12.5326 1.159H13.0716ZM14.1045 2.0795C14.1045 1.9465 14.1255 1.82167 14.1675 1.705C14.2119 1.586 14.2749 1.48333 14.3565 1.397C14.4382 1.30833 14.5374 1.23833 14.654 1.187C14.7707 1.13567 14.9037 1.11 15.053 1.11C15.151 1.11 15.2409 1.11933 15.3225 1.138C15.4042 1.15433 15.4835 1.17883 15.5605 1.2115L15.452 1.628C15.403 1.60933 15.3494 1.593 15.291 1.579C15.2327 1.565 15.1674 1.558 15.095 1.558C14.941 1.558 14.8255 1.60583 14.7485 1.7015C14.6739 1.79717 14.6365 1.92317 14.6365 2.0795C14.6365 2.24517 14.6715 2.3735 14.7415 2.4645C14.8139 2.5555 14.9387 2.601 15.116 2.601C15.179 2.601 15.2467 2.59517 15.319 2.5835C15.3914 2.57183 15.4579 2.55317 15.5185 2.5275L15.592 2.9545C15.5314 2.98017 15.4555 3.00233 15.3645 3.021C15.2735 3.03967 15.1732 3.049 15.0635 3.049C14.8955 3.049 14.7509 3.0245 14.6295 2.9755C14.5082 2.92417 14.4079 2.85533 14.3285 2.769C14.2515 2.68267 14.1944 2.58117 14.157 2.4645C14.122 2.3455 14.1045 2.21717 14.1045 2.0795ZM17.5752 2.076C17.5752 2.22067 17.5542 2.35367 17.5122 2.475C17.4702 2.594 17.4095 2.69667 17.3302 2.783C17.2508 2.867 17.1552 2.93233 17.0432 2.979C16.9335 3.02567 16.8098 3.049 16.6722 3.049C16.5368 3.049 16.4132 3.02567 16.3012 2.979C16.1915 2.93233 16.097 2.867 16.0177 2.783C15.9383 2.69667 15.8765 2.594 15.8322 2.475C15.7878 2.35367 15.7657 2.22067 15.7657 2.076C15.7657 1.93133 15.7878 1.7995 15.8322 1.6805C15.8788 1.5615 15.9418 1.46 16.0212 1.376C16.1028 1.292 16.1985 1.22667 16.3082 1.18C16.4202 1.13333 16.5415 1.11 16.6722 1.11C16.8052 1.11 16.9265 1.13333 17.0362 1.18C17.1482 1.22667 17.2438 1.292 17.3232 1.376C17.4025 1.46 17.4643 1.5615 17.5087 1.6805C17.553 1.7995 17.5752 1.93133 17.5752 2.076ZM17.0432 2.076C17.0432 1.915 17.0105 1.789 16.9452 1.698C16.8822 1.60467 16.7912 1.558 16.6722 1.558C16.5532 1.558 16.461 1.60467 16.3957 1.698C16.3303 1.789 16.2977 1.915 16.2977 2.076C16.2977 2.237 16.3303 2.36533 16.3957 2.461C16.461 2.55433 16.5532 2.601 16.6722 2.601C16.7912 2.601 16.8822 2.55433 16.9452 2.461C17.0105 2.36533 17.0432 2.237 17.0432 2.076ZM19.7011 2.076C19.7011 2.22067 19.6801 2.35367 19.6381 2.475C19.5961 2.594 19.5355 2.69667 19.4561 2.783C19.3768 2.867 19.2811 2.93233 19.1691 2.979C19.0595 3.02567 18.9358 3.049 18.7981 3.049C18.6628 3.049 18.5391 3.02567 18.4271 2.979C18.3175 2.93233 18.223 2.867 18.1436 2.783C18.0643 2.69667 18.0025 2.594 17.9581 2.475C17.9138 2.35367 17.8916 2.22067 17.8916 2.076C17.8916 1.93133 17.9138 1.7995 17.9581 1.6805C18.0048 1.5615 18.0678 1.46 18.1471 1.376C18.2288 1.292 18.3245 1.22667 18.4341 1.18C18.5461 1.13333 18.6675 1.11 18.7981 1.11C18.9311 1.11 19.0525 1.13333 19.1621 1.18C19.2741 1.22667 19.3698 1.292 19.4491 1.376C19.5285 1.46 19.5903 1.5615 19.6346 1.6805C19.679 1.7995 19.7011 1.93133 19.7011 2.076ZM19.1691 2.076C19.1691 1.915 19.1365 1.789 19.0711 1.698C19.0081 1.60467 18.9171 1.558 18.7981 1.558C18.6791 1.558 18.587 1.60467 18.5216 1.698C18.4563 1.789 18.4236 1.915 18.4236 2.076C18.4236 2.237 18.4563 2.36533 18.5216 2.461C18.587 2.55433 18.6791 2.601 18.7981 2.601C18.9171 2.601 19.0081 2.55433 19.0711 2.461C19.1365 2.36533 19.1691 2.237 19.1691 2.076ZM20.6266 1.824C20.6779 1.768 20.7304 1.70967 20.7841 1.649C20.8401 1.58833 20.8938 1.52883 20.9451 1.4705C20.9964 1.40983 21.0443 1.35267 21.0886 1.299C21.1353 1.24533 21.1749 1.19867 21.2076 1.159H21.8271C21.7034 1.30133 21.5821 1.43783 21.4631 1.5685C21.3464 1.69683 21.2181 1.82983 21.0781 1.9675C21.1481 2.0305 21.2204 2.10633 21.2951 2.195C21.3698 2.28133 21.4421 2.37117 21.5121 2.4645C21.5821 2.55783 21.6463 2.65117 21.7046 2.7445C21.7629 2.83783 21.8119 2.923 21.8516 3H21.2531C21.2158 2.93933 21.1726 2.87283 21.1236 2.8005C21.0769 2.72583 21.0268 2.65233 20.9731 2.58C20.9194 2.50533 20.8623 2.43417 20.8016 2.3665C20.7433 2.29883 20.6849 2.24167 20.6266 2.195V3H20.1051V0.368L20.6266 0.284V1.824ZM23.5538 2.5555C23.5794 2.55783 23.6086 2.56017 23.6413 2.5625C23.6763 2.5625 23.7171 2.5625 23.7638 2.5625C24.0368 2.5625 24.2386 2.49367 24.3693 2.356C24.5023 2.21833 24.5688 2.02817 24.5688 1.7855C24.5688 1.53117 24.5058 1.33867 24.3798 1.208C24.2538 1.07733 24.0543 1.012 23.7813 1.012C23.7439 1.012 23.7054 1.01317 23.6658 1.0155C23.6261 1.0155 23.5888 1.01783 23.5538 1.0225V2.5555ZM25.1323 1.7855C25.1323 1.9955 25.0996 2.17867 25.0343 2.335C24.969 2.49133 24.8756 2.62083 24.7543 2.7235C24.6353 2.82617 24.4894 2.90317 24.3168 2.9545C24.1441 3.00583 23.9504 3.0315 23.7358 3.0315C23.6378 3.0315 23.5234 3.02683 23.3928 3.0175C23.2621 3.0105 23.1338 2.99417 23.0078 2.9685V0.606C23.1338 0.582667 23.2644 0.5675 23.3998 0.5605C23.5374 0.551167 23.6553 0.5465 23.7533 0.5465C23.9609 0.5465 24.1488 0.569833 24.3168 0.6165C24.4871 0.663167 24.6329 0.736667 24.7543 0.837C24.8756 0.937333 24.969 1.06567 25.0343 1.222C25.0996 1.37833 25.1323 1.56617 25.1323 1.7855ZM26.0748 3H25.5533V1.159H26.0748V3ZM26.1238 0.627C26.1238 0.722667 26.0923 0.7985 26.0293 0.8545C25.9687 0.908167 25.8963 0.935 25.8123 0.935C25.7283 0.935 25.6548 0.908167 25.5918 0.8545C25.5312 0.7985 25.5008 0.722667 25.5008 0.627C25.5008 0.531333 25.5312 0.456667 25.5918 0.403C25.6548 0.347 25.7283 0.319 25.8123 0.319C25.8963 0.319 25.9687 0.347 26.0293 0.403C26.0923 0.456667 26.1238 0.531333 26.1238 0.627ZM27.0936 2.6255C27.1892 2.6255 27.2569 2.61617 27.2966 2.5975C27.3362 2.57883 27.3561 2.54267 27.3561 2.489C27.3561 2.447 27.3304 2.41083 27.2791 2.3805C27.2277 2.34783 27.1496 2.31167 27.0446 2.272C26.9629 2.24167 26.8882 2.21017 26.8206 2.1775C26.7552 2.14483 26.6992 2.10633 26.6526 2.062C26.6059 2.01533 26.5697 1.9605 26.5441 1.8975C26.5184 1.8345 26.5056 1.75867 26.5056 1.67C26.5056 1.49733 26.5697 1.36083 26.6981 1.2605C26.8264 1.16017 27.0026 1.11 27.2266 1.11C27.3386 1.11 27.4459 1.1205 27.5486 1.1415C27.6512 1.16017 27.7329 1.18117 27.7936 1.2045L27.7026 1.6105C27.6419 1.5895 27.5754 1.57083 27.5031 1.5545C27.4331 1.53817 27.3537 1.53 27.2651 1.53C27.1017 1.53 27.0201 1.5755 27.0201 1.6665C27.0201 1.6875 27.0236 1.70617 27.0306 1.7225C27.0376 1.73883 27.0516 1.75517 27.0726 1.7715C27.0936 1.7855 27.1216 1.80183 27.1566 1.8205C27.1939 1.83683 27.2406 1.8555 27.2966 1.8765C27.4109 1.9185 27.5054 1.9605 27.5801 2.0025C27.6547 2.04217 27.7131 2.0865 27.7551 2.1355C27.7994 2.18217 27.8297 2.23467 27.8461 2.293C27.8647 2.35133 27.8741 2.419 27.8741 2.496C27.8741 2.678 27.8052 2.81567 27.6676 2.909C27.5322 3.00233 27.3397 3.049 27.0901 3.049C26.9267 3.049 26.7902 3.035 26.6806 3.007C26.5732 2.979 26.4986 2.95567 26.4566 2.937L26.5441 2.5135C26.6327 2.5485 26.7237 2.5765 26.8171 2.5975C26.9104 2.61617 27.0026 2.6255 27.0936 2.6255ZM28.1763 2.0795C28.1763 1.9465 28.1973 1.82167 28.2393 1.705C28.2836 1.586 28.3466 1.48333 28.4283 1.397C28.51 1.30833 28.6091 1.23833 28.7258 1.187C28.8425 1.13567 28.9755 1.11 29.1248 1.11C29.2228 1.11 29.3126 1.11933 29.3943 1.138C29.476 1.15433 29.5553 1.17883 29.6323 1.2115L29.5238 1.628C29.4748 1.60933 29.4211 1.593 29.3628 1.579C29.3045 1.565 29.2391 1.558 29.1668 1.558C29.0128 1.558 28.8973 1.60583 28.8203 1.7015C28.7456 1.79717 28.7083 1.92317 28.7083 2.0795C28.7083 2.24517 28.7433 2.3735 28.8133 2.4645C28.8856 2.5555 29.0105 2.601 29.1878 2.601C29.2508 2.601 29.3185 2.59517 29.3908 2.5835C29.4631 2.57183 29.5296 2.55317 29.5903 2.5275L29.6638 2.9545C29.6031 2.98017 29.5273 3.00233 29.4363 3.021C29.3453 3.03967 29.245 3.049 29.1353 3.049C28.9673 3.049 28.8226 3.0245 28.7013 2.9755C28.58 2.92417 28.4796 2.85533 28.4003 2.769C28.3233 2.68267 28.2661 2.58117 28.2288 2.4645C28.1938 2.3455 28.1763 2.21717 28.1763 2.0795ZM31.6469 2.076C31.6469 2.22067 31.6259 2.35367 31.5839 2.475C31.5419 2.594 31.4813 2.69667 31.4019 2.783C31.3226 2.867 31.2269 2.93233 31.1149 2.979C31.0053 3.02567 30.8816 3.049 30.7439 3.049C30.6086 3.049 30.4849 3.02567 30.3729 2.979C30.2633 2.93233 30.1688 2.867 30.0894 2.783C30.0101 2.69667 29.9483 2.594 29.9039 2.475C29.8596 2.35367 29.8374 2.22067 29.8374 2.076C29.8374 1.93133 29.8596 1.7995 29.9039 1.6805C29.9506 1.5615 30.0136 1.46 30.0929 1.376C30.1746 1.292 30.2703 1.22667 30.3799 1.18C30.4919 1.13333 30.6133 1.11 30.7439 1.11C30.8769 1.11 30.9983 1.13333 31.1079 1.18C31.2199 1.22667 31.3156 1.292 31.3949 1.376C31.4743 1.46 31.5361 1.5615 31.5804 1.6805C31.6248 1.7995 31.6469 1.93133 31.6469 2.076ZM31.1149 2.076C31.1149 1.915 31.0823 1.789 31.0169 1.698C30.9539 1.60467 30.8629 1.558 30.7439 1.558C30.6249 1.558 30.5328 1.60467 30.4674 1.698C30.4021 1.789 30.3694 1.915 30.3694 2.076C30.3694 2.237 30.4021 2.36533 30.4674 2.461C30.5328 2.55433 30.6249 2.601 30.7439 2.601C30.8629 2.601 30.9539 2.55433 31.0169 2.461C31.0823 2.36533 31.1149 2.237 31.1149 2.076ZM33.1604 1.621C33.1137 1.60933 33.0589 1.59767 32.9959 1.586C32.9329 1.572 32.8652 1.565 32.7929 1.565C32.7602 1.565 32.7206 1.5685 32.6739 1.5755C32.6296 1.58017 32.5957 1.586 32.5724 1.593V3H32.0509V1.257C32.1442 1.22433 32.2539 1.194 32.3799 1.166C32.5082 1.13567 32.6506 1.1205 32.8069 1.1205C32.8349 1.1205 32.8687 1.12283 32.9084 1.1275C32.9481 1.12983 32.9877 1.1345 33.0274 1.1415C33.0671 1.14617 33.1067 1.15317 33.1464 1.1625C33.1861 1.1695 33.2199 1.17883 33.2479 1.1905L33.1604 1.621ZM33.9378 2.0655C33.9378 2.2265 33.974 2.356 34.0463 2.454C34.1186 2.552 34.226 2.601 34.3683 2.601C34.415 2.601 34.4581 2.59983 34.4978 2.5975C34.5375 2.59283 34.5701 2.58817 34.5958 2.5835V1.635C34.5631 1.614 34.52 1.5965 34.4663 1.5825C34.415 1.5685 34.3625 1.5615 34.3088 1.5615C34.0615 1.5615 33.9378 1.7295 33.9378 2.0655ZM35.1173 2.9405C35.0706 2.9545 35.017 2.9685 34.9563 2.9825C34.8956 2.99417 34.8315 3.00467 34.7638 3.014C34.6985 3.02333 34.6308 3.03033 34.5608 3.035C34.4931 3.042 34.4278 3.0455 34.3648 3.0455C34.2131 3.0455 34.0778 3.02333 33.9588 2.979C33.8398 2.93467 33.7395 2.87167 33.6578 2.79C33.5761 2.706 33.5131 2.60567 33.4688 2.489C33.4268 2.37 33.4058 2.237 33.4058 2.09C33.4058 1.94067 33.4245 1.8065 33.4618 1.6875C33.4991 1.56617 33.5528 1.4635 33.6228 1.3795C33.6928 1.2955 33.778 1.23133 33.8783 1.187C33.981 1.14267 34.0976 1.1205 34.2283 1.1205C34.3006 1.1205 34.3648 1.1275 34.4208 1.1415C34.4791 1.1555 34.5375 1.17533 34.5958 1.201V0.368L35.1173 0.284V2.9405ZM36.1166 2.7235C36.1166 2.8285 36.0828 2.909 36.0151 2.965C35.9498 3.01867 35.8751 3.0455 35.7911 3.0455C35.7071 3.0455 35.6313 3.01867 35.5636 2.965C35.4983 2.909 35.4656 2.8285 35.4656 2.7235C35.4656 2.6185 35.4983 2.53917 35.5636 2.4855C35.6313 2.4295 35.7071 2.4015 35.7911 2.4015C35.8751 2.4015 35.9498 2.4295 36.0151 2.4855C36.0828 2.53917 36.1166 2.6185 36.1166 2.7235ZM37.9686 2.1845C37.9686 2.3035 37.9546 2.4155 37.9266 2.5205C37.9009 2.6255 37.8542 2.71767 37.7866 2.797C37.7212 2.874 37.6314 2.93583 37.5171 2.9825C37.4051 3.02683 37.2627 3.049 37.0901 3.049C36.9314 3.049 36.7949 3.03033 36.6806 2.993C36.5662 2.95333 36.4717 2.90783 36.3971 2.8565L36.5791 2.433C36.6467 2.47267 36.7191 2.50767 36.7961 2.538C36.8731 2.56833 36.9571 2.5835 37.0481 2.5835C37.1811 2.5835 37.2767 2.55083 37.3351 2.4855C37.3934 2.42017 37.4226 2.3105 37.4226 2.1565V0.5745H37.9686V2.1845ZM39.1561 2.5835C39.2331 2.5835 39.2961 2.57767 39.3451 2.566C39.3964 2.552 39.4373 2.5345 39.4676 2.5135C39.4979 2.49017 39.5189 2.46333 39.5306 2.433C39.5423 2.40267 39.5481 2.36883 39.5481 2.3315C39.5481 2.25217 39.5108 2.18683 39.4361 2.1355C39.3614 2.08183 39.2331 2.02467 39.0511 1.964C38.9718 1.936 38.8924 1.9045 38.8131 1.8695C38.7338 1.83217 38.6626 1.78667 38.5996 1.733C38.5366 1.677 38.4853 1.6105 38.4456 1.5335C38.4059 1.45417 38.3861 1.3585 38.3861 1.2465C38.3861 1.1345 38.4071 1.03417 38.4491 0.9455C38.4911 0.8545 38.5506 0.7775 38.6276 0.7145C38.7046 0.6515 38.7979 0.603667 38.9076 0.571C39.0173 0.536 39.1409 0.5185 39.2786 0.5185C39.4419 0.5185 39.5831 0.536 39.7021 0.571C39.8211 0.606 39.9191 0.6445 39.9961 0.6865L39.8386 1.117C39.7709 1.082 39.6951 1.05167 39.6111 1.026C39.5294 0.998 39.4303 0.984 39.3136 0.984C39.1829 0.984 39.0884 1.00267 39.0301 1.04C38.9741 1.075 38.9461 1.12983 38.9461 1.2045C38.9461 1.24883 38.9566 1.28617 38.9776 1.3165C38.9986 1.34683 39.0278 1.37483 39.0651 1.4005C39.1048 1.42383 39.1491 1.446 39.1981 1.467C39.2494 1.48567 39.3054 1.5055 39.3661 1.5265C39.4921 1.57317 39.6018 1.61983 39.6951 1.6665C39.7884 1.71083 39.8654 1.76333 39.9261 1.824C39.9891 1.88467 40.0358 1.95583 40.0661 2.0375C40.0964 2.11917 40.1116 2.21833 40.1116 2.335C40.1116 2.56133 40.0323 2.7375 39.8736 2.8635C39.7149 2.98717 39.4758 3.049 39.1561 3.049C39.0488 3.049 38.9519 3.042 38.8656 3.028C38.7793 3.01633 38.7023 3.00117 38.6346 2.9825C38.5693 2.96383 38.5121 2.944 38.4631 2.923C38.4164 2.902 38.3768 2.88217 38.3441 2.8635L38.4981 2.4295C38.5704 2.46917 38.6591 2.50533 38.7641 2.538C38.8714 2.56833 39.0021 2.5835 39.1561 2.5835ZM42.181 3.0315C42.048 3.0315 41.915 3.02683 41.782 3.0175C41.6514 3.0105 41.5149 2.99183 41.3725 2.9615V0.6095C41.4845 0.5885 41.607 0.573333 41.74 0.564C41.873 0.552333 41.9967 0.5465 42.111 0.5465C42.265 0.5465 42.4062 0.558167 42.5345 0.5815C42.6652 0.6025 42.7772 0.639833 42.8705 0.6935C42.9639 0.747167 43.0362 0.818333 43.0875 0.907C43.1412 0.993333 43.168 1.10067 43.168 1.229C43.168 1.42267 43.0747 1.5755 42.888 1.6875C43.042 1.74583 43.147 1.82517 43.203 1.9255C43.259 2.02583 43.287 2.139 43.287 2.265C43.287 2.51933 43.1937 2.71067 43.007 2.839C42.8227 2.96733 42.5474 3.0315 42.181 3.0315ZM41.9045 1.943V2.5695C41.9442 2.57417 41.9874 2.57767 42.034 2.58C42.0807 2.58233 42.132 2.5835 42.188 2.5835C42.3514 2.5835 42.4832 2.56017 42.5835 2.5135C42.6839 2.46683 42.734 2.3805 42.734 2.2545C42.734 2.1425 42.692 2.06317 42.608 2.0165C42.524 1.9675 42.4039 1.943 42.2475 1.943H41.9045ZM41.9045 1.5265H42.1705C42.3385 1.5265 42.4587 1.5055 42.531 1.4635C42.6034 1.41917 42.6395 1.34917 42.6395 1.2535C42.6395 1.1555 42.6022 1.08667 42.5275 1.047C42.4529 1.00733 42.3432 0.9875 42.1985 0.9875C42.1519 0.9875 42.1017 0.988667 42.048 0.991C41.9944 0.991 41.9465 0.993333 41.9045 0.998V1.5265ZM45.4111 2.076C45.4111 2.22067 45.3901 2.35367 45.3481 2.475C45.3061 2.594 45.2454 2.69667 45.1661 2.783C45.0868 2.867 44.9911 2.93233 44.8791 2.979C44.7694 3.02567 44.6458 3.049 44.5081 3.049C44.3728 3.049 44.2491 3.02567 44.1371 2.979C44.0274 2.93233 43.9329 2.867 43.8536 2.783C43.7743 2.69667 43.7124 2.594 43.6681 2.475C43.6238 2.35367 43.6016 2.22067 43.6016 2.076C43.6016 1.93133 43.6238 1.7995 43.6681 1.6805C43.7148 1.5615 43.7778 1.46 43.8571 1.376C43.9388 1.292 44.0344 1.22667 44.1441 1.18C44.2561 1.13333 44.3774 1.11 44.5081 1.11C44.6411 1.11 44.7624 1.13333 44.8721 1.18C44.9841 1.22667 45.0798 1.292 45.1591 1.376C45.2384 1.46 45.3003 1.5615 45.3446 1.6805C45.3889 1.7995 45.4111 1.93133 45.4111 2.076ZM44.8791 2.076C44.8791 1.915 44.8464 1.789 44.7811 1.698C44.7181 1.60467 44.6271 1.558 44.5081 1.558C44.3891 1.558 44.2969 1.60467 44.2316 1.698C44.1663 1.789 44.1336 1.915 44.1336 2.076C44.1336 2.237 44.1663 2.36533 44.2316 2.461C44.2969 2.55433 44.3891 2.601 44.5081 2.601C44.6271 2.601 44.7181 2.55433 44.7811 2.461C44.8464 2.36533 44.8791 2.237 44.8791 2.076ZM45.7976 0.7005L46.3191 0.6165V1.159H46.9456V1.593H46.3191V2.2405C46.3191 2.35017 46.3377 2.43767 46.3751 2.503C46.4147 2.56833 46.4929 2.601 46.6096 2.601C46.6656 2.601 46.7227 2.59633 46.7811 2.587C46.8417 2.57533 46.8966 2.56017 46.9456 2.5415L47.0191 2.9475C46.9561 2.97317 46.8861 2.99533 46.8091 3.014C46.7321 3.03267 46.6376 3.042 46.5256 3.042C46.3832 3.042 46.2654 3.02333 46.1721 2.986C46.0787 2.94633 46.0041 2.89267 45.9481 2.825C45.8921 2.755 45.8524 2.671 45.8291 2.573C45.8081 2.475 45.7976 2.3665 45.7976 2.2475V0.7005ZM49.0091 0.284C49.1071 0.284 49.1969 0.2945 49.2786 0.3155C49.3602 0.334166 49.4232 0.352833 49.4676 0.3715L49.3661 0.788C49.3194 0.767 49.2681 0.751833 49.2121 0.7425C49.1584 0.730833 49.1082 0.725 49.0616 0.725C48.9986 0.725 48.9449 0.734333 48.9006 0.753C48.8586 0.769333 48.8247 0.792667 48.7991 0.823C48.7757 0.853333 48.7582 0.8895 48.7466 0.9315C48.7372 0.9735 48.7326 1.019 48.7326 1.068V1.159H49.3766V1.593H48.7326V3H48.2111V1.061C48.2111 0.823 48.2776 0.634 48.4106 0.494C48.5459 0.354 48.7454 0.284 49.0091 0.284ZM50.7971 1.621C50.7505 1.60933 50.6956 1.59767 50.6326 1.586C50.5696 1.572 50.502 1.565 50.4296 1.565C50.397 1.565 50.3573 1.5685 50.3106 1.5755C50.2663 1.58017 50.2325 1.586 50.2091 1.593V3H49.6876V1.257C49.781 1.22433 49.8906 1.194 50.0166 1.166C50.145 1.13567 50.2873 1.1205 50.4436 1.1205C50.4716 1.1205 50.5055 1.12283 50.5451 1.1275C50.5848 1.12983 50.6245 1.1345 50.6641 1.1415C50.7038 1.14617 50.7435 1.15317 50.7831 1.1625C50.8228 1.1695 50.8566 1.17883 50.8846 1.1905L50.7971 1.621ZM51.0425 2.0935C51.0425 1.93017 51.067 1.78783 51.116 1.6665C51.1673 1.54283 51.2338 1.44017 51.3155 1.3585C51.3972 1.27683 51.4905 1.215 51.5955 1.173C51.7028 1.131 51.8125 1.11 51.9245 1.11C52.1858 1.11 52.3923 1.1905 52.544 1.3515C52.6957 1.51017 52.7715 1.74467 52.7715 2.055C52.7715 2.08533 52.7703 2.11917 52.768 2.1565C52.7657 2.1915 52.7633 2.223 52.761 2.251H51.578C51.5897 2.35833 51.6398 2.4435 51.7285 2.5065C51.8172 2.5695 51.9362 2.601 52.0855 2.601C52.1812 2.601 52.2745 2.59283 52.3655 2.5765C52.4588 2.55783 52.5347 2.53567 52.593 2.51L52.663 2.9335C52.635 2.9475 52.5977 2.9615 52.551 2.9755C52.5043 2.9895 52.4518 3.00117 52.3935 3.0105C52.3375 3.02217 52.2768 3.0315 52.2115 3.0385C52.1462 3.0455 52.0808 3.049 52.0155 3.049C51.8498 3.049 51.7052 3.0245 51.5815 2.9755C51.4602 2.9265 51.3587 2.86 51.277 2.776C51.1977 2.68967 51.1382 2.58817 51.0985 2.4715C51.0612 2.35483 51.0425 2.22883 51.0425 2.0935ZM52.2675 1.894C52.2652 1.84967 52.257 1.8065 52.243 1.7645C52.2313 1.7225 52.2115 1.68517 52.1835 1.6525C52.1578 1.61983 52.124 1.593 52.082 1.572C52.0423 1.551 51.9922 1.5405 51.9315 1.5405C51.8732 1.5405 51.823 1.551 51.781 1.572C51.739 1.59067 51.704 1.61633 51.676 1.649C51.648 1.68167 51.6258 1.72017 51.6095 1.7645C51.5955 1.8065 51.585 1.84967 51.578 1.894H52.2675ZM54.1855 2.0235C54.1855 1.8555 54.1633 1.7365 54.119 1.6665C54.077 1.5965 54.0035 1.5615 53.8985 1.5615C53.8658 1.5615 53.832 1.56383 53.797 1.5685C53.762 1.57083 53.7281 1.57433 53.6955 1.579V3H53.174V1.222C53.2183 1.21033 53.2696 1.19867 53.328 1.187C53.3886 1.173 53.4516 1.16133 53.517 1.152C53.5846 1.14033 53.6535 1.13217 53.7235 1.1275C53.7935 1.1205 53.8623 1.117 53.93 1.117C54.063 1.117 54.1703 1.1345 54.252 1.1695C54.336 1.20217 54.4048 1.24183 54.4585 1.2885C54.5331 1.23483 54.6183 1.19283 54.714 1.1625C54.812 1.13217 54.9018 1.117 54.9835 1.117C55.1305 1.117 55.2506 1.138 55.344 1.18C55.4396 1.21967 55.5155 1.27683 55.5715 1.3515C55.6275 1.42617 55.666 1.51483 55.687 1.6175C55.708 1.72017 55.7185 1.8345 55.7185 1.9605V3H55.197V2.0235C55.197 1.8555 55.1748 1.7365 55.1305 1.6665C55.0885 1.5965 55.015 1.5615 54.91 1.5615C54.882 1.5615 54.8423 1.5685 54.791 1.5825C54.742 1.5965 54.7011 1.614 54.6685 1.635C54.6848 1.68867 54.6953 1.74583 54.7 1.8065C54.7046 1.86483 54.707 1.92783 54.707 1.9955V3H54.1855V2.0235ZM57.2778 1.943C57.2312 2.12033 57.181 2.2965 57.1273 2.4715C57.076 2.6465 57.0212 2.82267 56.9628 3H56.5568C56.5148 2.902 56.4693 2.78533 56.4203 2.65C56.3713 2.51467 56.32 2.36767 56.2663 2.209C56.215 2.048 56.1613 1.87883 56.1053 1.7015C56.0517 1.52183 55.9992 1.341 55.9478 1.159H56.4973C56.516 1.243 56.5358 1.33517 56.5568 1.4355C56.5802 1.5335 56.6035 1.635 56.6268 1.74C56.6525 1.845 56.6782 1.95117 56.7038 2.0585C56.7318 2.1635 56.7598 2.265 56.7878 2.363C56.8182 2.26033 56.8473 2.15533 56.8753 2.048C56.9057 1.94067 56.9337 1.83567 56.9593 1.733C56.9873 1.628 57.013 1.52767 57.0363 1.432C57.062 1.334 57.0842 1.243 57.1028 1.159H57.4808C57.4995 1.243 57.5205 1.334 57.5438 1.432C57.5672 1.52767 57.5917 1.628 57.6173 1.733C57.643 1.83567 57.6698 1.94067 57.6978 2.048C57.7258 2.15533 57.755 2.26033 57.7853 2.363C57.8133 2.265 57.8413 2.1635 57.8693 2.0585C57.8973 1.95117 57.923 1.845 57.9463 1.74C57.972 1.635 57.9953 1.5335 58.0163 1.4355C58.0397 1.33517 58.0607 1.243 58.0793 1.159H58.6218C58.5705 1.341 58.5168 1.52183 58.4608 1.7015C58.4072 1.87883 58.3535 2.048 58.2998 2.209C58.2485 2.36767 58.1972 2.51467 58.1458 2.65C58.0968 2.78533 58.0513 2.902 58.0093 3H57.6033C57.545 2.82267 57.4878 2.6465 57.4318 2.4715C57.3758 2.2965 57.3245 2.12033 57.2778 1.943ZM60.5835 2.076C60.5835 2.22067 60.5625 2.35367 60.5205 2.475C60.4785 2.594 60.4178 2.69667 60.3385 2.783C60.2591 2.867 60.1635 2.93233 60.0515 2.979C59.9418 3.02567 59.8181 3.049 59.6805 3.049C59.5451 3.049 59.4215 3.02567 59.3095 2.979C59.1998 2.93233 59.1053 2.867 59.026 2.783C58.9466 2.69667 58.8848 2.594 58.8405 2.475C58.7961 2.35367 58.774 2.22067 58.774 2.076C58.774 1.93133 58.7961 1.7995 58.8405 1.6805C58.8871 1.5615 58.9501 1.46 59.0295 1.376C59.1111 1.292 59.2068 1.22667 59.3165 1.18C59.4285 1.13333 59.5498 1.11 59.6805 1.11C59.8135 1.11 59.9348 1.13333 60.0445 1.18C60.1565 1.22667 60.2521 1.292 60.3315 1.376C60.4108 1.46 60.4726 1.5615 60.517 1.6805C60.5613 1.7995 60.5835 1.93133 60.5835 2.076ZM60.0515 2.076C60.0515 1.915 60.0188 1.789 59.9535 1.698C59.8905 1.60467 59.7995 1.558 59.6805 1.558C59.5615 1.558 59.4693 1.60467 59.404 1.698C59.3386 1.789 59.306 1.915 59.306 2.076C59.306 2.237 59.3386 2.36533 59.404 2.461C59.4693 2.55433 59.5615 2.601 59.6805 2.601C59.7995 2.601 59.8905 2.55433 59.9535 2.461C60.0188 2.36533 60.0515 2.237 60.0515 2.076ZM61.5089 1.824C61.5603 1.768 61.6128 1.70967 61.6664 1.649C61.7224 1.58833 61.7761 1.52883 61.8274 1.4705C61.8788 1.40983 61.9266 1.35267 61.9709 1.299C62.0176 1.24533 62.0573 1.19867 62.0899 1.159H62.7094C62.5858 1.30133 62.4644 1.43783 62.3454 1.5685C62.2288 1.69683 62.1004 1.82983 61.9604 1.9675C62.0304 2.0305 62.1028 2.10633 62.1774 2.195C62.2521 2.28133 62.3244 2.37117 62.3944 2.4645C62.4644 2.55783 62.5286 2.65117 62.5869 2.7445C62.6453 2.83783 62.6943 2.923 62.7339 3H62.1354C62.0981 2.93933 62.0549 2.87283 62.0059 2.8005C61.9593 2.72583 61.9091 2.65233 61.8554 2.58C61.8018 2.50533 61.7446 2.43417 61.6839 2.3665C61.6256 2.29883 61.5673 2.24167 61.5089 2.195V3H60.9874V0.368L61.5089 0.284V1.824Z" fill="#5865F2"/>
</svg>
