<svg width="39" height="8" viewBox="0 0 39 8" fill="none" xmlns="http://www.w3.org/2000/svg">
<path fill-rule="evenodd" clip-rule="evenodd" d="M28.3944 2.38564C28.1489 2.53335 28.0561 2.66012 28.0211 2.73478C28.0294 2.74434 28.0389 2.75479 28.0496 2.76611C28.1642 2.88658 28.3401 3.02156 28.5634 3.17381C28.8069 3.33987 29.131 3.5731 29.3997 3.85574C29.6503 4.11927 30 4.57778 30 5.19435C30 6.18068 29.3408 6.90432 28.637 7.32792C27.9138 7.76321 26.9791 8 26 8V6C26.6778 6 27.2431 5.83258 27.6056 5.61436C27.8511 5.46665 27.9439 5.33988 27.9789 5.26522C27.9706 5.25566 27.9611 5.24521 27.9504 5.23389C27.8358 5.11342 27.6599 4.97844 27.4366 4.82619C27.1931 4.66013 26.869 4.4269 26.6003 4.14426C26.3497 3.88073 26 3.42222 26 2.80565C26 1.81932 26.6592 1.09568 27.363 0.67208C28.0862 0.23679 29.0209 0 30 0V2C29.3222 2 28.7569 2.16742 28.3944 2.38564Z" fill="#F19746"/>
<path fill-rule="evenodd" clip-rule="evenodd" d="M26.5652 0L23 0V5.0962e-06H21V8H23L25 8V6H23V5H25V3.00001H23V2H25.1034C25.341 1.10104 25.953 0.434681 26.5652 0Z" fill="#F19746"/>
<path fill-rule="evenodd" clip-rule="evenodd" d="M16 0H14V5C14 6.65685 15.3431 8 17 8C18.6569 8 20 6.65685 20 5V0H18V5C18 5.55228 17.5523 6 17 6C16.4477 6 16 5.55228 16 5V0Z" fill="#F19746"/>
<path fill-rule="evenodd" clip-rule="evenodd" d="M9 0C9 0.552285 9.44772 1 10 1C10.5523 1 11 0.552285 11 0H13V8H11V2.82929C10.6872 2.93985 10.3506 3 10 3C9.64936 3 9.31278 2.93985 9 2.82929V8H7V0H9Z" fill="#FDCB4D"/>
<path fill-rule="evenodd" clip-rule="evenodd" d="M2 0H0V8H2V5H4V8H6V0H4V3H2V0Z" fill="#FDCB4D"/>
<rect x="31" width="8" height="8" fill="#FDCB4D"/>
<rect x="31" y="6.3125" width="8" height="1.6875" fill="#674604"/>
<rect x="31" y="6.3125" width="8" height="1.6875" fill="#674604"/>
<rect x="31" y="6.3125" width="8" height="1.6875" fill="#F09744"/>
<rect x="33" y="4.3125" width="4" height="2" fill="#674604"/>
<rect x="33" y="4.3125" width="4" height="2" fill="#674604"/>
<rect x="33" y="4.3125" width="4" height="2" fill="#674604"/>
<rect x="37" y="0.3125" width="2" height="2" fill="#674604"/>
<rect x="37" y="0.3125" width="2" height="2" fill="#674604"/>
<rect x="37" y="0.3125" width="2" height="2" fill="#674604"/>
<rect x="35" y="0.3125" width="2" height="2" fill="#674604"/>
<rect x="35" y="0.3125" width="2" height="2" fill="#674604"/>
<rect x="35" y="0.3125" width="2" height="2" fill="#EBEBEB"/>
<rect x="31" y="0.3125" width="2" height="2" fill="#674604"/>
<rect x="31" y="0.3125" width="2" height="2" fill="#674604"/>
<rect x="31" y="0.3125" width="2" height="2" fill="#674604"/>
</svg>
